<svg id="Layer_1" data-name="Layer 1" xmlns="http://www.w3.org/2000/svg" version="1.1" viewBox="0 0 830 128.4"><defs><style>.cls-1,.cls-2{fill:#69b979;stroke-width:0}.cls-2{fill:#fff}</style></defs><path class="cls-1" d="M208.8 100.1c-14.1 5.9-30.4 9.2-48.5 10.1l-8.7 18.1h44.9l13.8-28.8c-.5.2-1 .4-1.5.7zM370.9 0c-15.7 0-32 5.8-44.3 15.8l-64.4 56.9-5.5-22.6c-2 8-6.1 16.6-12.8 24.7-4.8 5.8-10.4 11-16.9 15.4l10.2 38 71.1-55-26 55h54.5L394.3 0h-23.4z"/><path class="cls-1" d="M245.2 25C228.8 0 196 0 163.8 0H57.1s12.5 2.5 20.7 9.1c6.5 5.1 13.1 17.8 3.7 33.1l-9.8 14.6s11.8 3.9 22.7 6c11.2 2.1 25.9 3.4 25.9 3.4L134.9 42c4.1-6 11.6-10.9 19.5-11.2 14.9-.5 42.3-1.4 37.2 16.6-4.1 14.6-19.5 27.4-63 26.8-59.1-.7-108.9-34.8-108.9-34.8S42.6 74.3 79 88.3c15 5.8 29.2 11.3 51 13.5C236.3 112.6 259.1 46.5 245 25zM98.9 108c.9-1.3 1.5-2.7 2.2-3.9-8.5-2.4-16-5.2-23.3-8.1-1.1-.4-2.2-.8-3.3-1.3-6.2-2.4-11.8-5.1-16.8-8.1-1.9 3.7-7.3 13.3-20.5 26.7C25.4 125.2 0 128.1 0 128.1h107.2c-7.9-3.6-13.7-12.1-8.3-20.2z"/><path class="cls-2" d="M353.3 128.4 410.9.4H533l14.3 21.1-15.2 27.6-36.5 15.5 22.9 15-25.4 48.8H353.3zm72.4-48.2-8 16.4H465l8-16.4h-47.3zm15.5-31.7h28.1l29-16.2h-49.1l-8 16.2z"/><path class="cls-2" d="m598.6 32.3-8 16.2H642l-15.5 31.7h-48.4l-8 16.4H673l-15.5 31.7H508.9l53.2-109-13.3-19h135.7l-15.7 31.9h-70.2zM684.4 32.3 700.7.4H830l-15.7 31.9h-47.4l-47 96.1h-45.7l47-96.1h-36.8z"/></svg>